<?xml version="1.0" encoding="UTF-8"?>
<svg xmlns="http://www.w3.org/2000/svg" xmlns:xlink="http://www.w3.org/1999/xlink" width="424pt" height="603pt" viewBox="0 0 424 603" version="1.1">
<g id="surface276">
<path style="fill:none;stroke-width:2;stroke-linecap:square;stroke-linejoin:miter;stroke:rgb(0%,0%,0%);stroke-opacity:1;stroke-miterlimit:3.25;" d="M 424.605469 308.542969 L 418.6875 306.210938 L 413.457031 304.496094 L 417.007812 308.183594 L 423.019531 314.660156 L 423.628906 312.964844 L 428.113281 309.230469 L 433.871094 308.28125 L 428.789062 309.933594 L 422.570312 312.417969 L 418.398438 308.75 L 417.273438 312.914062 L 419.714844 314.34375 L 423.808594 313.921875 L 433.871094 316.769531 L 421.691406 317.660156 L 408.039062 312.296875 L 398.050781 301.558594 L 409.0625 289.660156 L 418.320312 309.003906 L 402.40625 322.742188 L 387.308594 337.214844 L 363.945312 328.601562 L 381.761719 310.214844 L 362.535156 298.226562 L 384.257812 292.386719 L 359.539062 303.324219 L 370.578125 323.429688 L 352.519531 337.144531 L 369.640625 329.257812 L 359.136719 312.824219 L 367.972656 333.574219 L 371.472656 355.667969 L 367.929688 376.355469 L 357.929688 394.808594 L 361.351562 417.921875 L 370.492188 405.738281 L 360.710938 415.003906 L 357.386719 404.390625 L 360.933594 412.398438 L 355.804688 402.625 L 346.074219 417.039062 L 356.183594 406.382812 L 334.726562 402.703125 L 328.859375 379.964844 L 344.878906 369.4375 L 368.175781 371.726562 L 381.527344 361.683594 L 367.433594 371.089844 L 382.46875 369.378906 L 370.191406 365.601562 L 380.25 368.921875 L 392.671875 362.6875 L 383.515625 343.605469 L 396.214844 335.796875 L 405.300781 347.617188 L 420.972656 346.027344 L 404.351562 351.570312 L 388.945312 342.570312 L 375.046875 353.351562 L 369.121094 337.664062 L 348.359375 330.90625 L 340.515625 353.554688 L 362.164062 352.515625 L 343.574219 369.820312 L 317.3125 369.347656 L 310.742188 395.492188 L 291.410156 421.375 L 299.898438 387.902344 L 278.949219 359.96875 L 309.863281 380.15625 L 276.722656 378.730469 L 265.703125 354.28125 L 250.640625 373.058594 L 257.507812 396.105469 L 256.828125 375.34375 L 255.683594 346.507812 L 254.347656 317.683594 L 252.8125 288.871094 L 251.078125 260.066406 L 227.332031 247.078125 L 231.539062 278.410156 L 208.136719 268.074219 L 205.925781 291.542969 L 228.886719 286.207031 L 228.816406 261.597656 L 236.355469 286.046875 L 224.511719 264.863281 L 223.308594 286.867188 L 230.753906 263.414062 L 249.199219 271.429688 L 235.183594 259.636719 L 233.382812 238.855469 L 233.664062 213.957031 L 214.992188 197.988281 L 189.359375 204.878906 L 171.449219 191.625 L 177.574219 207.421875 L 173.414062 224.785156 L 158.621094 235.585938 L 171.472656 248.832031 L 190.191406 258.980469 L 177.445312 275.984375 L 194.96875 265.488281 L 180.71875 283.3125 L 161.253906 283.808594 L 144.089844 292.253906 L 122.488281 292.652344 L 136.023438 303.414062 L 132.4375 286.5 L 138.539062 275.207031 L 130.996094 276.777344 L 137.0625 281.53125 L 129.617188 288.460938 L 133.402344 297.621094 L 139.792969 291.0625 L 148.785156 297.125 L 161.171875 297.757812 L 172.109375 291.90625 L 160.632812 295.890625 L 154.121094 294.28125 L 163.226562 292.019531 L 156.199219 294.125 L 160.304688 299.265625 L 156.738281 301.269531 L 156.78125 292.945312 L 156.804688 281.011719 L 153.746094 275.015625 L 160.511719 266.234375 L 159.3125 263.515625 L 157.121094 259.488281 L 151.667969 259.839844 L 145.539062 254.652344 L 138.941406 241.941406 L 125.515625 246.457031 L 136.164062 232.671875 L 151.46875 221.015625 L 139.984375 238.34375 L 152.039062 255.5 L 170.882812 263.070312 L 190.804688 259.160156 L 196.566406 243.28125 L 197.789062 234.292969 L 202.660156 230.867188 L 204.4375 241.21875 L 207.394531 247.84375 L 207.519531 249.859375 L 206.730469 247.324219 L 212.773438 243.386719 L 214.410156 248.679688 L 214.597656 248.152344 L 215.0625 247.839844 L 210.027344 248.09375 L 210.441406 247.75 L 208.324219 243.9375 " transform="matrix(1,0,0,1,-66,-5)"/>
</g>
</svg>
