<?xml version="1.0" encoding="UTF-8"?>
<svg xmlns="http://www.w3.org/2000/svg" xmlns:xlink="http://www.w3.org/1999/xlink" width="424pt" height="603pt" viewBox="0 0 424 603" version="1.1">
<g id="surface256">
<path style="fill:none;stroke-width:2;stroke-linecap:square;stroke-linejoin:miter;stroke:rgb(0%,0%,0%);stroke-opacity:1;stroke-miterlimit:3.25;" d="M 136.011719 177.617188 L 139.023438 180.691406 L 138.9375 183.199219 L 138.832031 180.929688 L 138.761719 178.191406 L 138.199219 177.3125 L 136.757812 169.492188 L 141.980469 170.347656 L 136.910156 171.636719 L 135.046875 175.78125 L 130.5 175.421875 L 131.085938 169.964844 L 131.949219 168.78125 L 131.1875 164.640625 L 133.574219 161.15625 L 135.347656 162.582031 L 136.90625 160.921875 L 138.554688 162.398438 L 137.921875 161.910156 L 137.140625 163.167969 L 137.179688 162.460938 L 137.804688 162.136719 L 138.304688 162.171875 L 135.347656 158.566406 L 140.679688 158.164062 L 143.921875 159.121094 L 144.96875 155.753906 L 142.980469 152.886719 L 148.804688 146.113281 L 154.683594 135.289062 L 156.726562 124.324219 L 148.230469 118.542969 L 139.527344 124 L 132.964844 116.359375 L 130.015625 112.933594 L 134.417969 111.179688 L 134.316406 110.472656 L 137.722656 112.371094 L 136.261719 103.851562 L 136.421875 93.261719 L 129.804688 83.234375 L 131.875 98.515625 L 138.976562 83.785156 L 151.644531 68.964844 L 162.335938 88.007812 L 175.421875 106.898438 L 190.226562 124.476562 L 178.667969 105.914062 L 196.644531 122.335938 L 199.464844 144.332031 L 224.28125 154.683594 L 216.15625 179.589844 L 218.371094 211.347656 L 223.457031 180.191406 L 221.269531 152.730469 L 196.378906 168.746094 L 186.964844 195.628906 L 208.71875 211.648438 L 216.820312 230.640625 L 198.503906 235.457031 L 209.691406 246.472656 L 197.992188 265.703125 L 180.046875 247.386719 L 154.976562 242.632812 L 131.6875 253.058594 L 122.488281 274.765625 L 130.527344 296.929688 L 154.820312 297.707031 L 181.957031 305.609375 L 176.363281 277.722656 L 202.386719 265.8125 L 174.445312 266.054688 L 175.59375 237.984375 L 196.480469 212.960938 L 219.5625 189.285156 L 225.457031 225.484375 L 186.109375 220.035156 L 211.566406 248.453125 L 168.167969 246.164062 L 179.558594 201.480469 L 221.152344 221.394531 L 188.1875 256.890625 L 190.855469 299.992188 L 237.574219 296.578125 L 203.277344 324.757812 L 206.925781 287.765625 L 237.664062 272.722656 L 266.621094 290.957031 L 285.945312 257.015625 L 269.429688 229.796875 L 266.640625 264.640625 L 251.828125 290.5 L 248.085938 259.605469 L 285.253906 259.320312 L 255.851562 229.449219 L 227.023438 264.835938 L 265.355469 289.613281 L 307.476562 266.519531 L 318.507812 309.144531 L 321.667969 357.046875 L 289.949219 384.554688 L 259.84375 412.808594 L 246.035156 455.195312 L 254.328125 499 L 209.597656 488.972656 L 219.96875 531.796875 L 178.375 544.035156 L 164.128906 503.082031 L 144.878906 466.039062 L 175.410156 432.082031 L 165.457031 389.171875 L 123.308594 403.265625 L 124.707031 351.699219 L 172.671875 370.691406 L 132.0625 395.449219 L 169.777344 381.050781 L 192.75 343.648438 L 216.941406 306.96875 L 205.351562 343.527344 L 235.664062 333.550781 L 261.636719 314.503906 L 280.4375 288.355469 L 254.753906 276.730469 L 227.601562 286.222656 L 232.222656 310.464844 L 230.925781 330.714844 L 220.78125 342.695312 L 228.59375 360.695312 L 242.796875 371.074219 L 229.464844 383.957031 L 245.644531 386.148438 L 251.734375 370.507812 L 261.171875 352.84375 L 272.648438 336.429688 L 277.734375 357.644531 L 254.363281 352.925781 L 272.742188 367.925781 L 290.910156 354.972656 L 275.015625 367.894531 L 256.113281 354.304688 L 270.25 378.941406 L 267.574219 350.664062 L 281.300781 322.484375 L 314.046875 320.769531 L 277.734375 317.164062 L 313.089844 326.199219 L 320.039062 291.667969 L 317.125 328.882812 L 355.007812 332.691406 L 345.867188 294.039062 L 384.96875 293.019531 L 377.960938 331.503906 L 395.910156 288.882812 L 433.871094 314.890625 L 421.722656 355.058594 " transform="matrix(1,0,0,1,-66,-5)"/>
</g>
</svg>
