<?xml version="1.0" encoding="UTF-8"?>
<svg xmlns="http://www.w3.org/2000/svg" xmlns:xlink="http://www.w3.org/1999/xlink" width="424pt" height="603pt" viewBox="0 0 424 603" version="1.1">
<g id="surface266">
<path style="fill:none;stroke-width:2;stroke-linecap:square;stroke-linejoin:miter;stroke:rgb(0%,0%,0%);stroke-opacity:1;stroke-miterlimit:3.25;" d="M 204.847656 201.9375 L 204.222656 203.082031 L 203.515625 201.988281 L 202.679688 202.183594 L 202.757812 201.984375 L 203.34375 201.328125 L 202.570312 201.742188 L 200.414062 201.921875 L 198.367188 201.234375 L 198.816406 196.257812 L 184.523438 185.566406 L 165.441406 184.242188 L 176.152344 184.824219 L 164.878906 186.601562 L 167.714844 183.3125 L 168.976562 184.09375 L 163.601562 189.140625 L 163.347656 186.769531 L 164.140625 185.628906 L 160.496094 187.675781 L 167.4375 198.554688 L 168.109375 218.878906 L 185.097656 193.972656 L 158.695312 168.53125 L 189.332031 147.644531 L 230.554688 145.140625 L 217.800781 190.964844 L 178.636719 163.96875 L 162.042969 133.226562 L 140.667969 154.121094 L 144.269531 183.199219 L 143.570312 158.175781 L 168.226562 163.371094 L 149.933594 161.46875 L 126 180.390625 L 143.390625 190.988281 L 129.085938 201.484375 L 139.886719 219.9375 L 139.675781 254.171875 L 150.644531 282.101562 L 122.488281 276.148438 L 134.984375 261.222656 L 154.304688 263.3125 L 179.367188 251.101562 L 156.390625 237.988281 L 158.515625 264.359375 L 184.371094 274.007812 L 204.070312 254.675781 L 179.9375 279.636719 L 214.46875 281.777344 L 237.925781 321.5 L 263.523438 280.425781 L 260.039062 317.707031 L 280.929688 349.496094 L 303.625 388.769531 L 324.03125 429.273438 L 382.207031 426.933594 L 418.394531 461.292969 L 378.886719 428.46875 L 331.671875 417.347656 L 379.132812 400.925781 L 433.871094 414.191406 L 383.585938 395.417969 L 338.09375 412.234375 L 302.164062 396.820312 L 269.675781 410.273438 L 266.523438 376.578125 L 233.09375 400.351562 L 262.800781 422.601562 L 294.464844 449.25 L 257.058594 451.515625 L 282.613281 424.101562 L 257.847656 432.984375 L 285.5625 432.71875 L 296.554688 409.167969 L 285.164062 387.410156 L 279.394531 420.886719 L 267.308594 401.859375 L 275.652344 390.199219 L 287.070312 397.574219 L 290.605469 407.242188 L 297.605469 407.75 L 300.941406 401.570312 L 307.261719 407.589844 L 303.929688 410.75 L 301.9375 414.058594 L 300.835938 421.171875 L 302.832031 426.734375 L 299.835938 428.917969 L 295.324219 427.054688 L 283.6875 426.078125 L 292.523438 418.007812 L 298.789062 428.730469 L 289.835938 420.972656 L 294.203125 431.871094 L 296.019531 435.183594 L 295.554688 434.632812 L 295.554688 434.941406 L 295.53125 435.09375 L 292.867188 446.773438 L 283.769531 453.492188 L 284.835938 441.269531 L 285.351562 437.910156 L 286.964844 433.367188 L 287.746094 434.625 L 285.0625 434.296875 L 282.507812 433.113281 L 283.472656 435.804688 L 283.449219 435.765625 L 280.738281 441.785156 L 274.90625 437.976562 L 280.230469 445.257812 L 277.199219 454.570312 L 277.179688 454.613281 L 278.308594 458.414062 L 281.964844 462.382812 L 278.355469 460.308594 L 276.585938 456.679688 L 284.613281 449.074219 L 292.882812 458.539062 L 299.941406 470.597656 L 298.40625 476.367188 L 302.222656 475.199219 L 303.804688 465.996094 L 301.3125 479.773438 L 303.921875 466.015625 L 322.492188 471.378906 L 340.945312 470.742188 L 350.949219 453.644531 L 332.882812 447.558594 L 357.125 443.371094 L 351.628906 458.460938 L 341.269531 446.1875 L 357.800781 449.589844 L 370.640625 424.144531 L 374.089844 456.378906 L 346.414062 428.359375 L 389.792969 433.105469 L 346.398438 443.136719 L 376.835938 412.5 L 343.304688 438.46875 L 317.566406 475.515625 L 316.1875 436.589844 L 294.707031 413 L 265.523438 402.300781 L 269.027344 377.691406 L 288.015625 387.660156 L 288.152344 400.496094 L 300.730469 408.175781 L 294.566406 422.101562 L 283.214844 420.253906 L 297.546875 423.167969 L 300.335938 433.117188 L 303.457031 448.808594 L 304.433594 457.605469 " transform="matrix(1,0,0,1,-66,-5)"/>
</g>
</svg>
